<svg width="181" height="22" viewBox="0 0 181 22" fill="none" xmlns="http://www.w3.org/2000/svg">
<path d="M154.679 21.4619C153.474 21.4633 152.272 21.3572 151.086 21.1449C150.724 21.0953 150.366 21.0215 150.014 20.9241C149.602 20.8053 149.197 20.6642 148.801 20.5015C148.285 20.2879 147.794 20.0182 147.338 19.6974C146.858 19.3672 146.434 18.9619 146.083 18.4971C145.675 17.9096 145.347 17.27 145.108 16.5952C144.778 15.6349 144.622 14.6233 144.648 13.6081C144.644 12.4873 144.852 11.3757 145.262 10.3326C145.591 9.36945 146.191 8.52138 146.989 7.88971C147.607 7.42032 148.282 7.02988 148.996 6.72744C149.623 6.48002 150.272 6.29113 150.933 6.16321C151.536 6.04134 152.146 5.95385 152.759 5.90117C153.302 5.8589 153.931 5.83777 154.624 5.83777C155.683 5.81753 156.741 5.89143 157.786 6.0586C158.554 6.20336 159.088 6.31219 159.371 6.38193C159.792 6.4958 160.205 6.63915 160.605 6.81091C161.113 7.01351 161.588 7.29134 162.013 7.63507C162.947 8.30173 163.664 9.22799 164.075 10.2988C164.497 11.366 164.714 12.5029 164.717 13.6504C164.711 14.8047 164.493 15.9482 164.075 17.0241C163.666 18.1194 162.932 19.0633 161.971 19.7291C160.937 20.4318 159.763 20.9005 158.529 21.1027C157.259 21.3362 155.97 21.4564 154.679 21.4619ZM154.651 8.42859C153.967 8.42895 153.285 8.50586 152.617 8.65787C151.924 8.83401 151.284 9.1746 150.751 9.6508C150.217 10.127 149.807 10.7248 149.553 11.3934C149.323 12.1103 149.211 12.8596 149.219 13.6123C149.25 14.5721 149.433 15.5208 149.762 16.4229C149.911 16.9235 150.189 17.3761 150.568 17.7354C150.947 18.0946 151.413 18.3479 151.921 18.4696C152.811 18.726 153.728 18.8701 154.654 18.8986C155.357 18.9008 156.058 18.8235 156.745 18.6682C157.445 18.5314 158.095 18.2034 158.621 17.7207C159.147 17.2379 159.529 16.6191 159.725 15.9327C159.988 15.2098 160.121 14.446 160.116 13.6768C160.136 13.0089 160.046 12.3423 159.852 11.703C159.672 11.1853 159.554 10.8683 159.489 10.731C159.369 10.5075 159.23 10.2954 159.072 10.097C158.523 9.42096 157.77 8.93943 156.926 8.72338C156.536 8.62692 156.141 8.55353 155.742 8.50361C155.38 8.4573 155.016 8.4326 154.651 8.42964V8.42859ZM4.3205 21.1513H0V6.13151H6.21501L11.2868 17.6402L16.3881 6.13151H22.5471V21.1492H18.3946L18.7296 9.47252L13.6303 21.1502H9.14183L3.87461 9.36898L4.3205 21.1502V21.1513ZM108.193 21.1513H103.984V6.13151H114.326C114.866 6.13151 115.405 6.15264 115.929 6.19385C116.471 6.23506 117.091 6.31536 117.769 6.43264C118.462 6.55843 119.115 6.84507 119.676 7.26948C120.228 7.66129 120.676 8.18082 120.982 8.78361C121.221 9.38176 121.344 10.0195 121.345 10.6633C121.353 11.3279 121.208 11.9854 120.922 12.5853C120.603 13.1723 120.144 13.6709 119.585 14.036C118.895 14.4606 118.127 14.7417 117.327 14.8623L122.259 21.1471H117.549L113.118 15.2776H108.197V21.1471L108.193 21.1513ZM108.193 8.82693V12.6307H113.347C113.985 12.6385 114.623 12.6032 115.257 12.5251C115.747 12.465 116.214 12.2782 116.61 11.983C116.782 11.8203 116.916 11.6218 117.002 11.4016C117.088 11.1814 117.125 10.9448 117.11 10.7088C117.148 10.3768 117.07 10.0419 116.891 9.76036C116.711 9.47882 116.439 9.26785 116.122 9.16294C115.22 8.90934 114.284 8.79672 113.347 8.82905L108.193 8.82693ZM28.4229 21.1513H23.9683L32.3852 6.13151H36.8442L45.4027 21.1481H40.7219L38.8824 17.5556H30.1547L28.4261 21.1481L28.4229 21.1513ZM34.4752 9.16082L31.5167 14.9046H37.5098L34.4752 9.16082ZM76.6152 21.1502H72.2386V8.78361H65.8271V6.17272H83.0795V8.78361H76.6152V21.146V21.1502ZM171.903 21.1502H167.499V6.13151H171.903V21.1492V21.1502ZM135.895 21.1502H124.886V6.13151H135.17C136.059 6.12338 136.948 6.17244 137.831 6.27838C138.696 6.40508 139.549 6.60047 140.382 6.86268C140.797 6.95378 141.182 7.15038 141.5 7.43355C141.817 7.71671 142.056 8.07687 142.194 8.47931C142.393 9.0554 142.515 9.6556 142.555 10.2639C142.555 11.6798 141.561 12.8178 139.597 13.6451C140.191 13.8537 140.753 14.1419 141.269 14.502C141.688 14.7889 142.04 15.163 142.301 15.5988C142.531 16.0117 142.649 16.4776 142.643 16.9502C142.622 17.483 142.527 18.0103 142.361 18.5171C142.215 19.087 141.862 19.5821 141.371 19.9055C140.966 20.169 140.538 20.393 140.09 20.5744C139.556 20.7588 139.005 20.8915 138.445 20.9706C137.601 21.0988 136.749 21.1589 135.895 21.1502ZM129.095 14.9458V18.4971H135.247C135.958 18.5388 136.668 18.3984 137.309 18.0892C137.541 17.953 137.73 17.7544 137.855 17.5161C137.98 17.2778 138.036 17.0093 138.016 16.741C138.016 15.5491 137.084 14.9447 135.247 14.9447L129.095 14.9458ZM129.095 8.82693V12.2926H135.223C135.933 12.3305 136.64 12.1944 137.285 11.8964C137.519 11.7699 137.712 11.5786 137.841 11.3453C137.97 11.1121 138.029 10.8467 138.011 10.5809C138.011 9.41864 137.073 8.82693 135.223 8.82693H129.095ZM100.273 21.1502H93.1934C92.0499 21.166 90.9073 21.0786 89.7795 20.8892C88.7859 20.6907 87.8305 20.3339 86.9499 19.8326C85.9125 19.2122 85.0758 18.3062 84.5398 17.2228C84.0648 16.1876 83.822 15.0609 83.8287 13.9219L83.8847 13.0238C83.8844 12.4876 83.9598 11.954 84.1087 11.4389C84.2521 10.9366 84.4381 10.4473 84.6644 9.97653C84.8723 9.54139 85.1346 9.13449 85.4453 8.76565C85.8393 8.33011 86.2785 7.93766 86.7555 7.59492C87.3815 7.14122 88.0922 6.81785 88.8455 6.64397C89.6025 6.45288 90.3723 6.31657 91.1489 6.23611C91.8462 6.16638 92.5732 6.13045 93.3097 6.13045H100.273V8.74029H93.3646C92.1354 8.66829 90.914 8.97872 89.8683 9.6289C89.4588 9.92726 89.1307 10.3236 88.9139 10.7815C88.6972 11.2395 88.5988 11.7445 88.6278 12.2504H100.273V14.8634H88.6278C88.5769 15.3441 88.6328 15.8302 88.7916 16.2868C88.9503 16.7434 89.2079 17.1594 89.546 17.5049C90.0301 17.9479 90.621 18.2574 91.2609 18.403C91.9573 18.5051 92.6608 18.5507 93.3646 18.5393H100.273V21.1492V21.1502ZM57.7134 21.1502H46.5132V18.4548H57.0477C57.8658 18.4891 58.6833 18.372 59.4589 18.1093C59.7224 18.0131 59.9474 17.8338 60.1 17.5983C60.2525 17.3629 60.3242 17.0842 60.3042 16.8044V16.4874C60.283 16.1277 60.1232 15.7902 59.8583 15.5459C59.5332 15.3369 59.1685 15.1973 58.7869 15.136C58.3124 15.0604 57.8324 15.0251 57.352 15.0303H52.3859C50.6752 15.1201 48.9696 14.7751 47.4283 14.0276C46.8516 13.6866 46.3823 13.1906 46.0737 12.596C45.7651 12.0015 45.6297 11.3322 45.6827 10.6644C45.6709 9.92051 45.853 9.18637 46.2111 8.53425C46.547 7.925 47.0465 7.42178 47.6533 7.0814C48.3125 6.72464 49.0268 6.48105 49.7666 6.36079C50.7322 6.1879 51.7126 6.11109 52.6934 6.13151H63.7667V8.82693H53.3717C51.1898 8.82693 50.0835 9.48732 50.0835 10.7901C50.0728 11.0442 50.1387 11.2956 50.2727 11.5117C50.4066 11.7278 50.6025 11.8987 50.8348 12.0021C51.4296 12.3049 52.092 12.4504 52.7589 12.4247H58.3061C59.2657 12.4168 60.2247 12.4726 61.1769 12.5917C62.0249 12.7578 62.8276 13.1033 63.5311 13.6049C63.9721 13.9746 64.3138 14.4484 64.5255 14.9834C64.7371 15.5185 64.8119 16.0979 64.743 16.6691C64.7481 17.0456 64.7059 17.4211 64.6173 17.787C64.5023 18.207 64.3336 18.6105 64.1154 18.9873C63.8082 19.5022 63.3641 19.9217 62.8327 20.1993C62.1625 20.57 61.4314 20.818 60.674 20.9315C59.6977 21.0983 58.7078 21.1715 57.7176 21.1502H57.7134Z" fill="#ACAEC3"/>
<path d="M178.03 5.97303C177.511 5.97216 177.001 5.83595 176.551 5.57785C176.086 5.32253 175.705 4.93886 175.452 4.47263C175.192 4.0189 175.055 3.50489 175.055 2.98175C175.055 2.45862 175.192 1.94461 175.452 1.49087C175.709 1.02192 176.097 0.637913 176.569 0.385649C177.016 0.136765 177.518 0.00415414 178.03 -1.52588e-05C178.543 0.00398496 179.046 0.136589 179.495 0.385649C179.963 0.638661 180.348 1.02226 180.602 1.48981C180.862 1.9435 180.999 2.45711 181 2.97999C181.001 3.50288 180.866 4.01697 180.607 4.47158C180.354 4.93758 179.973 5.32118 179.508 5.5768C179.058 5.83464 178.549 5.97117 178.03 5.97303ZM178.03 0.49448C177.603 0.49676 177.184 0.608051 176.812 0.817805C176.421 1.02898 176.098 1.34851 175.884 1.73812C175.666 2.11921 175.55 2.55015 175.548 2.98915C175.551 3.42303 175.665 3.84894 175.879 4.22644C176.092 4.61424 176.411 4.93395 176.798 5.14887C177.173 5.36511 177.598 5.47894 178.031 5.47894C178.464 5.47894 178.889 5.36511 179.264 5.14887C179.65 4.93361 179.968 4.61391 180.18 4.22644C180.396 3.84722 180.509 3.41831 180.508 2.98211C180.507 2.5459 180.392 2.11748 180.175 1.73917C179.961 1.34874 179.639 1.02867 179.247 0.817805C178.875 0.608831 178.457 0.497588 178.03 0.49448ZM177.241 4.63852H176.725V1.42536H177.825C178.1 1.41258 178.375 1.44216 178.641 1.51306C178.805 1.5702 178.946 1.67923 179.043 1.8237C179.139 1.96182 179.191 2.1258 179.191 2.2939C179.192 2.40761 179.171 2.52039 179.128 2.62575C179.085 2.73111 179.022 2.82696 178.942 2.90779C178.766 3.08572 178.529 3.19061 178.278 3.20153C178.379 3.24068 178.471 3.29839 178.55 3.37164C178.73 3.56562 178.888 3.77813 179.023 4.00561L179.412 4.63218H178.778L178.496 4.12501C178.362 3.8462 178.18 3.59356 177.957 3.37904C177.835 3.30051 177.69 3.26414 177.545 3.27549H177.242V4.63747L177.241 4.63852ZM177.241 1.86068V2.8296H177.868C178.081 2.85149 178.296 2.80445 178.48 2.69541C178.568 2.62196 178.625 2.51855 178.641 2.40529C178.656 2.29203 178.629 2.177 178.565 2.08257C178.51 2.00732 178.435 1.94909 178.348 1.91457C178.179 1.86911 178.003 1.85092 177.828 1.86068H177.241Z" fill="#ACAEC3"/>
</svg>
