<svg width="126" height="36" viewBox="0 0 126 36" fill="none" xmlns="http://www.w3.org/2000/svg">
<path d="M32.5164 23.831C32.5164 22.7897 32.5164 21.9207 32.4733 21.2097C32.4302 20.4988 32.423 19.874 32.4087 19.3354C32.7426 19.4006 33.0812 19.4391 33.4213 19.4503C33.7761 19.4359 34.1291 19.3927 34.4769 19.321C36.1143 21.1451 37.7445 22.9117 39.3459 24.6999C40.9474 26.4881 42.5991 28.2547 44.2868 30.0788V25.9208C44.2868 25.2026 44.2868 24.4845 44.2868 23.7663C44.2868 23.0482 44.2868 22.3947 44.2868 21.7914C44.2868 21.1882 44.2868 20.664 44.2437 20.2331C44.2347 19.9373 44.2083 19.6424 44.1647 19.3498C44.4987 19.4146 44.8372 19.4531 45.1773 19.4647C45.5197 19.4531 45.8606 19.4147 46.197 19.3498C46.118 20.7214 46.0606 21.9566 46.0175 23.0697C45.9744 24.1829 45.9313 25.2242 45.9026 26.1937C45.8739 27.1632 45.8523 28.147 45.8451 29.0662C45.838 29.9855 45.8451 31.0411 45.8451 32.1255V34.8401C45.5483 34.8114 45.2395 34.797 44.9187 34.797C44.6261 34.795 44.3336 34.8094 44.0426 34.8401C40.9306 31.2207 37.6368 27.5821 34.1609 23.9243C34.1609 24.3624 34.1609 24.8005 34.1609 25.2313C34.1609 25.6622 34.1609 26.1147 34.1609 26.5671V29.1883C34.1609 30.0932 34.1609 30.8616 34.1609 31.4936C34.1609 32.1255 34.1609 32.6641 34.1609 33.1022C34.1609 33.5403 34.1969 33.8922 34.2112 34.1722C34.2256 34.4523 34.2112 34.6749 34.2543 34.8401C34.0738 34.8112 33.8913 34.7968 33.7085 34.797H33.1915C32.8467 34.797 32.4733 34.797 32.1501 34.8401C32.2112 34.414 32.2496 33.9849 32.265 33.5546C32.3081 32.8365 32.3584 31.9101 32.4087 30.8544C32.4589 29.7987 32.5092 28.6353 32.5451 27.393C32.581 26.1506 32.5164 24.9656 32.5164 23.831Z" fill="#ACAEC3"/>
<path d="M49.6082 22.2439C49.6082 21.2744 49.5292 20.2977 49.4717 19.321C50.1468 19.321 50.8147 19.3569 51.4825 19.3857C52.1504 19.4144 52.8111 19.4359 53.4933 19.4359C54.6065 19.4359 55.5975 19.4359 56.4665 19.4C57.3354 19.3641 57.9027 19.3498 58.2187 19.321C58.1498 19.6224 58.1185 19.9312 58.1254 20.2403C58.1254 20.4844 58.1254 20.6711 58.1254 20.8076C58.141 20.9596 58.165 21.1106 58.1972 21.26C57.7591 21.2241 57.278 21.1954 56.7609 21.1667L55.3031 21.102L53.9817 21.0374H53.1415C53.084 21.8633 53.0481 22.6891 53.0409 23.5006C53.0337 24.3121 53.0409 25.138 53.0409 25.9639C53.9984 25.9639 54.8818 25.9423 55.6909 25.8992L58.1685 25.7843C58.1254 26.0357 58.0966 26.2368 58.0751 26.3732C58.0676 26.5143 58.0676 26.6558 58.0751 26.7969C58.0645 26.9212 58.0645 27.0461 58.0751 27.1703C58.0751 27.2996 58.1254 27.4863 58.1541 27.7233C56.4377 27.594 54.7286 27.5222 53.0266 27.5222C53.0266 28.0034 53.0266 28.4845 53.0266 28.9585C53.0266 29.4325 53.0266 29.9208 53.0266 30.3948C53.0266 31.3715 53.0266 32.3194 53.0984 33.2171C53.9601 33.2171 54.8147 33.2171 55.6765 33.1525C56.5383 33.0878 57.4 33.0304 58.2762 32.9227C58.2762 33.095 58.2187 33.2458 58.2044 33.3751C58.19 33.5044 58.2044 33.7054 58.2044 33.9424C58.2044 34.1794 58.2044 34.3733 58.2044 34.5098C58.2134 34.6249 58.2376 34.7384 58.2762 34.8473L56.7394 34.8114H49.9098L49.4717 34.8473C49.5292 33.9137 49.5723 32.9586 49.6082 31.9747C49.6441 30.9909 49.6513 29.8921 49.6513 28.6425V25.5832C49.6513 24.3265 49.6369 23.2205 49.6082 22.2439Z" fill="#ACAEC3"/>
<path d="M67.9998 35.1417C67.0905 35.1489 66.1838 35.0452 65.2996 34.8329C64.5186 34.6495 63.7847 34.3046 63.1452 33.8203C62.5264 33.334 62.0338 32.7059 61.7089 31.9891C61.3299 31.1332 61.1482 30.2029 61.1775 29.2673C61.1775 28.6641 61.1775 28.1255 61.1775 27.6515C61.1775 27.1775 61.1775 26.7323 61.1775 26.3229C61.1775 25.9136 61.1775 25.5258 61.1775 25.1524C61.1775 24.7789 61.1775 24.3839 61.1775 23.9746C61.1775 22.7538 61.1775 21.7699 61.1775 21.0158C61.1775 20.2618 61.1344 19.6945 61.1057 19.321L62.0321 19.4C62.348 19.4 62.6568 19.4359 62.9585 19.4359C63.2601 19.4359 63.5689 19.4359 63.8849 19.4L64.8113 19.321C64.6605 20.7573 64.5743 22.1433 64.5456 23.4001C64.5168 24.6568 64.4953 25.9351 64.4953 27.2278C64.472 28.3435 64.5707 29.4585 64.7897 30.5528C64.9273 31.2614 65.2245 31.9294 65.6587 32.5061C66.0296 32.9551 66.5319 33.2766 67.095 33.4254C67.7312 33.5841 68.3855 33.659 69.0411 33.648C69.8185 33.7008 70.5874 33.4599 71.1956 32.9729C71.7321 32.4794 72.1327 31.8562 72.359 31.1632C72.6354 30.3271 72.7973 29.4574 72.8401 28.5779C72.9047 27.6012 72.9335 26.5886 72.9335 25.533C72.9335 24.4773 72.9335 23.4575 72.8904 22.4306C72.8473 21.4036 72.8114 20.3623 72.7539 19.321L73.3644 19.4C73.5431 19.4218 73.7229 19.4338 73.903 19.4359C74.0926 19.4354 74.2821 19.4234 74.4703 19.4L75.0376 19.321C75.0376 19.6514 74.973 20.0966 74.9443 20.6568C74.9155 21.2169 74.8868 21.8561 74.8581 22.5886C74.8294 23.3211 74.8006 24.1254 74.7791 25.0015C74.7576 25.8777 74.7791 26.8184 74.7791 27.7951C74.7791 30.4187 74.2142 32.2979 73.0843 33.4325C71.8203 34.6031 70.1902 35.1417 67.9998 35.1417Z" fill="#ACAEC3"/>
<path d="M81.9964 27.7305V28.6569C81.9964 29.9065 81.9964 31.0196 82.0395 31.9891C82.0826 32.9586 82.1113 33.9137 82.176 34.8616C81.8969 34.8319 81.6164 34.8175 81.3357 34.8186H79.3034C79.0251 34.8173 78.747 34.8316 78.4703 34.8616C78.5278 33.9281 78.5709 32.9729 78.5996 31.9891C78.6283 31.0052 78.6499 29.9065 78.6499 28.6569V25.5832C78.6499 24.3265 78.6499 23.2205 78.5996 22.2439C78.5493 21.2672 78.5278 20.2977 78.4703 19.321L79.3034 19.4C79.605 19.4 79.9425 19.4359 80.3231 19.4359C80.7038 19.4359 81.1921 19.4359 81.7092 19.3785C82.2262 19.321 82.8726 19.321 83.641 19.321C84.2155 19.321 84.7038 19.321 85.1132 19.3641C85.4728 19.3947 85.8301 19.4474 86.1832 19.5221C86.4479 19.5699 86.7059 19.6495 86.9516 19.7591C87.1697 19.8579 87.3788 19.9757 87.5764 20.111C88.0432 20.4506 88.4186 20.9005 88.6692 21.4206C88.9198 21.9406 89.0378 22.5146 89.0127 23.0913C89.0541 24.0699 88.7318 25.0293 88.1078 25.7843C87.4105 26.5202 86.5023 27.022 85.5081 27.2206C86.2359 28.5085 87.0138 29.7868 87.8421 31.0555C88.6704 32.3242 89.4986 33.5857 90.3269 34.8401C89.9822 34.8401 89.6087 34.797 89.3071 34.797H87.2604C86.9229 34.797 86.5423 34.797 86.2335 34.8401L82.1903 27.7233L81.9964 27.7305ZM85.5871 23.5724C85.6041 23.0356 85.5337 22.4996 85.3789 21.9853C85.2732 21.6303 85.0568 21.3183 84.7613 21.0948C84.4384 20.8748 84.0656 20.739 83.6769 20.6999C83.1483 20.6313 82.6156 20.6001 82.0826 20.6065C82.0395 22.6604 82.018 24.7095 82.018 26.7538H82.2765H82.5135C83.3303 26.803 84.1333 26.5267 84.7469 25.9854C85.3273 25.3205 85.6216 24.4532 85.5656 23.5724H85.5871Z" fill="#ACAEC3"/>
<path d="M91.2102 27.1201C91.1997 26.0518 91.4048 24.9924 91.8132 24.0052C92.2217 23.0181 92.825 22.1234 93.5873 21.3749C94.375 20.6198 95.3051 20.029 96.3234 19.637C97.469 19.1989 98.6878 18.9844 99.9141 19.005C101.056 18.9955 102.192 19.1626 103.282 19.5006C104.279 19.8088 105.203 20.3171 105.997 20.9943C106.786 21.6855 107.408 22.5476 107.814 23.515C108.285 24.652 108.512 25.8753 108.482 27.1057C108.49 28.1926 108.27 29.2692 107.835 30.2655C107.416 31.2307 106.808 32.1023 106.047 32.8293C105.263 33.5755 104.338 34.1568 103.325 34.5385C102.212 34.9573 101.031 35.1643 99.8423 35.1489C98.7098 35.1536 97.5818 35.0063 96.4886 34.7108C95.4824 34.438 94.5484 33.9477 93.7524 33.2745C92.9553 32.5913 92.3263 31.7337 91.914 30.7682C91.4265 29.6149 91.1868 28.372 91.2102 27.1201ZM104.754 26.6174C104.767 25.7277 104.643 24.8413 104.388 23.9889C104.18 23.2713 103.839 22.5991 103.383 22.0069C102.965 21.4775 102.432 21.0502 101.824 20.7573C101.201 20.4594 100.519 20.3071 99.8279 20.3121C99.103 20.3023 98.3896 20.4937 97.7669 20.865C97.1465 21.2492 96.6172 21.7638 96.2157 22.3731C95.7717 23.0557 95.4464 23.8084 95.2534 24.5994C95.0331 25.4897 94.9245 26.404 94.9302 27.3211C94.9051 28.3517 95.0334 29.3804 95.3108 30.3732C95.5167 31.1033 95.8713 31.783 96.3521 32.3697C96.7575 32.8568 97.2784 33.2346 97.8674 33.4684C98.4417 33.6933 99.0532 33.8078 99.6699 33.806C100.343 33.8078 101.007 33.6607 101.616 33.3751C102.253 33.0778 102.808 32.629 103.232 32.0681C103.736 31.3958 104.111 30.6362 104.338 29.8274C104.628 28.783 104.762 27.7011 104.733 26.6174H104.754Z" fill="#ACAEC3"/>
<path d="M111.397 23.831C111.397 22.7897 111.397 21.9207 111.354 21.2097C111.311 20.4988 111.297 19.874 111.282 19.3354C111.954 19.4886 112.651 19.4886 113.322 19.3354C114.959 21.1595 116.582 22.9524 118.191 24.7143C119.8 26.4761 121.444 28.2691 123.125 30.0932V25.9208C123.125 25.2026 123.125 24.4845 123.125 23.7663C123.125 23.0482 123.125 22.3947 123.125 21.7914C123.125 21.1882 123.125 20.664 123.074 20.2331C123.069 19.9371 123.043 19.6419 122.995 19.3498C123.666 19.503 124.364 19.503 125.035 19.3498C124.956 20.7214 124.898 21.9566 124.848 23.0697C124.798 24.1829 124.769 25.2242 124.74 26.1937C124.712 27.1632 124.69 28.147 124.683 29.0662C124.676 29.9855 124.683 31.0411 124.683 32.1255V34.8401C124.381 34.8114 124.072 34.797 123.756 34.797C123.464 34.795 123.171 34.8094 122.88 34.8401C119.773 31.2207 116.479 27.5821 112.999 23.9243C112.999 24.3624 112.999 24.8005 112.963 25.2313C112.927 25.6622 112.963 26.1147 112.963 26.5671V29.1883C112.963 30.0932 112.963 30.8616 112.963 31.4936C112.963 32.1255 112.963 32.6641 112.999 33.1022C113.035 33.5403 112.999 33.8922 113.042 34.1722C113.085 34.4523 113.042 34.6749 113.092 34.8401C112.912 34.8115 112.729 34.7971 112.546 34.797H112.029C111.684 34.797 111.311 34.797 110.988 34.8401C111.049 34.414 111.087 33.9849 111.103 33.5546C111.146 32.8365 111.196 31.9101 111.246 30.8544C111.297 29.7987 111.318 28.6425 111.318 27.4217C111.318 26.2008 111.397 24.9656 111.397 23.831Z" fill="#ACAEC3"/>
<path d="M16.4515 21.1954C14.1228 21.2011 11.8364 20.573 9.8374 19.3785C10.1766 20.3704 10.785 21.2484 11.5946 21.9144C12.4042 22.5804 13.3831 23.0081 14.4218 23.1497C15.4606 23.2912 16.5182 23.1411 17.4765 22.7161C18.4348 22.2911 19.256 21.6079 19.8483 20.743C18.7411 21.0438 17.5988 21.196 16.4515 21.1954Z" fill="#ACAEC3"/>
<path d="M15.8052 25.2242C13.8605 25.511 11.8743 25.2627 10.0601 24.506C10.4569 25.2931 11.0645 25.9546 11.8152 26.4167C12.5658 26.8789 13.43 27.1236 14.3115 27.1236C15.193 27.1236 16.0572 26.8789 16.8078 26.4167C17.5584 25.9546 18.166 25.2931 18.5629 24.506C17.6785 24.8633 16.7516 25.1047 15.8052 25.2242V25.2242Z" fill="#ACAEC3"/>
<path d="M15.4461 28.4271C13.8942 28.8446 12.2576 28.8297 10.7136 28.384C11.1155 28.9868 11.6774 29.4657 12.3362 29.767C12.9951 30.0683 13.7248 30.1801 14.4437 30.0899C15.1625 29.9997 15.842 29.711 16.4059 29.2562C16.9699 28.8014 17.396 28.1985 17.6365 27.515C16.9514 27.9176 16.2144 28.2245 15.4461 28.4271V28.4271Z" fill="#ACAEC3"/>
<path d="M15.8052 31.1776C14.5977 31.6221 13.2923 31.7313 12.0278 31.4935C12.3921 31.9467 12.8757 32.2892 13.4241 32.4824C13.9725 32.6756 14.564 32.712 15.1319 32.5874C15.6999 32.4627 16.2218 32.1821 16.6389 31.7769C17.056 31.3718 17.3517 30.8583 17.4928 30.2943C16.972 30.6623 16.4045 30.9594 15.8052 31.1776V31.1776Z" fill="#ACAEC3"/>
<path d="M16.272 33.2961C15.421 33.8776 14.4283 34.2176 13.3994 34.2799C13.7717 34.5583 14.214 34.7277 14.677 34.7691C15.14 34.8105 15.6054 34.7223 16.0212 34.5145C16.437 34.3066 16.7867 33.9872 17.0314 33.5919C17.2761 33.1967 17.406 32.7412 17.4067 32.2763C17.076 32.6657 16.6943 33.0087 16.272 33.2961Z" fill="#ACAEC3"/>
<path d="M0.659461 24.0966C0.659461 24.0966 3.36686 21.9422 3.36686 20.1109C3.36686 18.9547 2.19629 18.1504 1.77976 17.8991C1.76494 17.8884 1.75286 17.8744 1.74452 17.8582C1.73619 17.8419 1.73185 17.824 1.73185 17.8057C1.73185 17.7875 1.73619 17.7695 1.74452 17.7532C1.75286 17.737 1.76494 17.723 1.77976 17.7123C2.1532 17.3748 3.21605 16.312 3.21605 15.4071C3.21605 14.3155 2.01675 11.6225 2.01675 11.6225C2.01675 11.6225 4.96832 4.29025 12.2144 4.29025C19.4604 4.29025 23.6544 10.8541 23.6544 15.6656C23.6544 20.0176 20.9398 23.795 20.9398 23.795C20.9398 23.795 27.5252 19.1702 27.5252 12.6566C27.5252 6.14306 20.5879 0.850342 13.6507 0.850342C4.3579 0.850342 0.724094 9.66914 0.0634018 11.5794C-0.0211339 11.8113 -0.0211339 12.0656 0.0634018 12.2975L1.19089 15.3497C1.21733 15.4007 1.23113 15.4573 1.23113 15.5148C1.23113 15.5723 1.21733 15.629 1.19089 15.68L0.120853 17.2743C0.0723477 17.3505 0.0509282 17.4409 0.0600481 17.5308C0.069168 17.6206 0.108296 17.7049 0.171123 17.7698C0.724094 18.3012 2.05984 19.6944 2.05984 20.6424C2.05984 21.8919 0.659461 24.0966 0.659461 24.0966Z" fill="#ACAEC3"/>
</svg>
