<svg width="137" height="19" viewBox="0 0 137 19" fill="none" xmlns="http://www.w3.org/2000/svg">
<path d="M12.0392 6.40333H10.2525L9.80885 3.90915C9.44911 3.60537 8.96946 3.35356 8.3699 3.1537C7.77033 2.95384 7.07485 2.85392 6.28342 2.85392C5.02833 2.85392 4.06504 3.11972 3.39353 3.65134C2.72201 4.18295 2.38626 4.87644 2.38626 5.73182C2.38626 6.49127 2.72801 7.1248 3.41151 7.63243C4.09502 8.14007 5.2002 8.58574 6.7271 8.96946C8.56576 9.42513 9.96273 10.0966 10.918 10.984C11.8733 11.8713 12.351 12.9705 12.351 14.2816C12.351 15.6886 11.7774 16.8197 10.6302 17.6751C9.48308 18.5305 7.98219 18.9582 6.12753 18.9582C4.7845 18.9582 3.59139 18.7383 2.54814 18.2987C1.5049 17.859 0.655525 17.2834 0 16.5719V13.3223H1.77471L2.23037 15.8285C2.68604 16.2042 3.22964 16.512 3.86118 16.7518C4.49273 16.9916 5.24817 17.1115 6.12753 17.1115C7.31867 17.1115 8.25997 16.8597 8.95147 16.3561C9.64297 15.8524 9.98872 15.1689 9.98872 14.3056C9.98872 13.5061 9.68894 12.8366 9.08937 12.297C8.48981 11.7574 7.43059 11.3038 5.91169 10.936C4.06503 10.4963 2.62209 9.84882 1.58285 8.99344C0.543598 8.13806 0.0239825 7.06286 0.0239825 5.76779C0.0239825 4.40078 0.603554 3.26362 1.76271 2.35628C2.92188 1.44894 4.42876 0.995274 6.28342 0.995274C7.50653 0.995274 8.61971 1.20512 9.62298 1.62482C10.6263 2.04451 11.4317 2.55413 12.0392 3.1537V6.40333ZM15.0725 12.0992C15.0725 10.1806 15.5921 8.59974 16.6314 7.35664C17.6706 6.11354 19.0816 5.49199 20.8643 5.49199C22.655 5.49199 24.072 6.11154 25.1152 7.35064C26.1585 8.58974 26.6801 10.1726 26.6801 12.0992V12.363C26.6801 14.2976 26.1605 15.8804 25.1212 17.1115C24.082 18.3426 22.671 18.9582 20.8883 18.9582C19.0896 18.9582 17.6706 18.3406 16.6314 17.1055C15.5921 15.8704 15.0725 14.2896 15.0725 12.363V12.0992ZM17.4348 12.363C17.4348 13.738 17.7246 14.8731 18.3042 15.7685C18.8838 16.6639 19.7451 17.1115 20.8883 17.1115C22.0075 17.1115 22.8589 16.6639 23.4424 15.7685C24.026 14.8731 24.3178 13.738 24.3178 12.363V12.0992C24.3178 10.7402 24.026 9.609 23.4424 8.70565C22.8589 7.80231 21.9995 7.35064 20.8643 7.35064C19.7291 7.35064 18.8738 7.80231 18.2982 8.70565C17.7226 9.609 17.4348 10.7402 17.4348 12.0992V12.363ZM28.7661 1.52289V0H33.0829V16.8597L35.0375 17.1955V18.7064H28.7661V17.1955L30.7206 16.8597V1.85864L28.7661 1.52289ZM46.5966 16.7878C46.1889 17.4833 45.6633 18.0189 45.0197 18.3946C44.3762 18.7703 43.6347 18.9582 42.7954 18.9582C41.3884 18.9582 40.2892 18.5065 39.4978 17.6032C38.7063 16.6998 38.3106 15.2929 38.3106 13.3822V7.59046L36.8237 7.25471V5.73182H40.6729V13.4062C40.6729 14.7892 40.8768 15.7405 41.2845 16.2601C41.6922 16.7798 42.3277 17.0396 43.1911 17.0396C44.0305 17.0396 44.7239 16.8697 45.2715 16.5299C45.8191 16.1902 46.2328 15.7085 46.5126 15.085V7.59046L44.7739 7.25471V5.73182H48.8749V16.8597L50.3618 17.1955V18.7064H46.7525L46.5966 16.7878ZM56.8486 2.6021V5.73182H59.3068V7.48254H56.8486V15.3608C56.8486 15.9684 56.9745 16.396 57.2264 16.6439C57.4782 16.8917 57.8119 17.0156 58.2276 17.0156C58.4355 17.0156 58.6693 16.9976 58.9291 16.9616C59.1889 16.9257 59.4068 16.8877 59.5826 16.8477L59.9064 18.4665C59.6826 18.6104 59.3548 18.7283 58.9231 18.8203C58.4914 18.9122 58.0597 18.9582 57.6281 18.9582C56.6688 18.9582 55.9053 18.6684 55.3377 18.0888C54.7701 17.5092 54.4864 16.5999 54.4864 15.3608V7.48254H52.4358V5.73182H54.4864V2.6021H56.8486ZM62.2082 17.1955L64.1628 16.8597V7.59046L62.2082 7.25471V5.73182H66.5251V16.8597L68.4797 17.1955V18.7064H62.2082V17.1955ZM66.5251 2.41024H64.1628V0H66.5251V2.41024ZM70.7815 12.0992C70.7815 10.1806 71.3011 8.59974 72.3404 7.35664C73.3796 6.11354 74.7906 5.49199 76.5733 5.49199C78.364 5.49199 79.7809 6.11154 80.8242 7.35064C81.8674 8.58974 82.389 10.1726 82.389 12.0992V12.363C82.389 14.2976 81.8694 15.8804 80.8302 17.1115C79.7909 18.3426 78.38 18.9582 76.5973 18.9582C74.7986 18.9582 73.3796 18.3406 72.3404 17.1055C71.3011 15.8704 70.7815 14.2896 70.7815 12.363V12.0992ZM73.1438 12.363C73.1438 13.738 73.4336 14.8731 74.0132 15.7685C74.5927 16.6639 75.4541 17.1115 76.5973 17.1115C77.7165 17.1115 78.5678 16.6639 79.1514 15.7685C79.735 14.8731 80.0268 13.738 80.0268 12.363V12.0992C80.0268 10.7402 79.735 9.609 79.1514 8.70565C78.5678 7.80231 77.7085 7.35064 76.5733 7.35064C75.4381 7.35064 74.5827 7.80231 74.0072 8.70565C73.4316 9.609 73.1438 10.7402 73.1438 12.0992V12.363ZM84.6909 17.1955L86.6455 16.8597V7.59046L84.6909 7.25471V5.73182H88.7559L88.9238 7.66241C89.3555 6.97491 89.8971 6.4413 90.5486 6.06158C91.2001 5.68185 91.9416 5.49199 92.773 5.49199C94.172 5.49199 95.2552 5.90169 96.0226 6.7211C96.7901 7.54051 97.1738 8.80557 97.1738 10.5163V16.8597L99.1284 17.1955V18.7064H92.8569V17.1955L94.8115 16.8597V10.5643C94.8115 9.42112 94.5857 8.60972 94.134 8.13007C93.6823 7.65042 92.9928 7.4106 92.0655 7.4106C91.386 7.4106 90.7845 7.57447 90.2608 7.90224C89.7372 8.23 89.3195 8.67767 89.0077 9.24526V16.8597L90.9623 17.1955V18.7064H84.6909V17.1955ZM100.759 16.6079L102.006 16.428L107.318 1.24709H110.903L116.179 16.428L117.427 16.6079V18.7064H111.479V16.6079L112.69 16.392L111.923 13.9938H106.263L105.495 16.392L106.706 16.6079V18.7064H100.759V16.6079ZM107.09 11.4157H111.095L109.129 5.26416H109.057L107.09 11.4157ZM119.045 16.6079L120.736 16.2482V8.20202L118.865 7.84228V5.73182H124.237V16.2482L125.916 16.6079V18.7064H119.045V16.6079ZM124.237 2.62609H120.736V0H124.237V2.62609ZM127.822 16.6079L129.501 16.2482V8.20202L127.642 7.84228V5.73182H132.762L132.918 7.62644C133.222 6.95493 133.614 6.43131 134.093 6.05558C134.573 5.67986 135.129 5.49199 135.76 5.49199C135.944 5.49199 136.138 5.50598 136.342 5.53396C136.546 5.56194 136.716 5.59592 136.851 5.63589L136.48 8.82556L135.041 8.78959C134.529 8.78959 134.105 8.88952 133.77 9.08937C133.434 9.28923 133.178 9.57302 133.002 9.94075V16.2482L134.681 16.6079V18.7064H127.822V16.6079Z" fill="#ACAEC3"/>
</svg>
