<svg width="153" height="34" viewBox="0 0 153 34" fill="none" xmlns="http://www.w3.org/2000/svg">
<path d="M61.928 8.41495C62.2757 8.4082 62.6137 8.29883 62.8994 8.10062C63.1851 7.9024 63.4058 7.62419 63.5336 7.30099C63.6614 6.97778 63.6907 6.62403 63.6178 6.28423C63.5449 5.94444 63.373 5.63378 63.1238 5.39135C62.8745 5.14892 62.5591 4.98554 62.2172 4.92178C61.8753 4.85802 61.5221 4.89672 61.2021 5.03302C60.8822 5.16931 60.6097 5.39711 60.419 5.68775C60.2283 5.97839 60.1279 6.31888 60.1305 6.6664C60.1289 6.90047 60.1747 7.13245 60.2651 7.34841C60.3555 7.56437 60.4886 7.75986 60.6565 7.92316C60.8243 8.08645 61.0235 8.21419 61.242 8.2987C61.4605 8.3832 61.6938 8.42275 61.928 8.41495V8.41495Z" fill="#ACAEC3"/>
<path d="M70.9233 20.363V6.27724H65.744V6.76369C67.7125 6.9083 68.0547 7.10288 68.0547 9.19326V20.363C68.0547 22.3587 67.7415 22.6243 65.9966 22.7715C65.8697 22.782 65.742 22.782 65.615 22.7715C63.8939 22.6243 63.5807 22.3587 63.5807 20.363V10.479H53.2273V10.9655C55.2196 11.1338 56.1433 11.7543 54.7827 15.2146L52.5957 20.7022L50.0666 14.4626C48.827 11.4756 49.3613 11.1101 51.793 10.9655V10.479H44.282V10.9655C45.7163 11.1101 45.6926 11.4914 46.8822 14.2181L50.893 23.2764H52.2799L55.367 15.2777C56.2275 13.0375 57.0908 12.0199 57.8092 11.5019C58.0831 11.3001 58.4001 11.1645 58.7352 11.1056C59.0704 11.0468 59.4146 11.0663 59.7409 11.1627C60.512 11.4046 60.6805 11.9515 60.6805 13.3924V20.363C60.6805 22.4507 60.341 22.6453 58.3961 22.7926V23.2764H73.2235V22.7926C71.2628 22.6401 70.9233 22.4507 70.9233 20.363Z" fill="#ACAEC3"/>
<path d="M107.028 16.8553C107.028 13.14 105.836 10.7341 103.723 10.7341C101.61 10.7341 100.417 13.1268 100.417 16.8553C100.417 20.618 101.607 23.0476 103.723 23.0476C105.839 23.0476 107.028 20.6049 107.028 16.8553ZM110.31 16.8553C110.31 20.8389 107.392 23.534 103.731 23.534C100.07 23.534 97.1514 20.8389 97.1514 16.8553C97.1514 12.8718 100.067 10.2503 103.731 10.2503C107.394 10.2503 110.31 12.8823 110.31 16.8553V16.8553Z" fill="#ACAEC3"/>
<path d="M125.924 22.7926V23.2764H120.748V19.4637C120.019 21.6751 118.074 23.5209 115.958 23.5209C113.602 23.5209 112.313 22.0143 112.313 19.5374V13.3924C112.313 11.3283 111.973 11.1101 110.005 10.9655V10.479H115.182V19.4848C115.182 21.0624 115.837 21.9354 117.15 21.9354C118.877 21.9354 120.674 19.8476 120.748 17.6863V13.3924C120.748 11.3283 120.408 11.1101 118.463 10.9655V10.479H123.64V20.363C123.64 22.4507 123.98 22.6401 125.924 22.7926Z" fill="#ACAEC3"/>
<path d="M125.701 16.9106C125.725 16.0021 125.929 15.1075 126.302 14.2788C126.675 13.45 127.21 12.7036 127.874 12.0829C128.538 11.4622 129.32 10.9796 130.172 10.6632C131.025 10.3468 131.932 10.2029 132.841 10.2398C135.838 10.3213 137.267 11.9515 137.267 13.4424C137.268 13.5799 137.257 13.7171 137.233 13.8526C136.97 15.2725 134.865 15.0043 134.886 13.5607V13.5397C134.886 12.1303 134.157 10.7209 132.359 10.7209C129.951 10.7209 128.883 13.2951 128.883 16.0166C128.883 19.8292 131.12 21.7723 133.549 21.7723C135.275 21.7723 136.878 20.7758 137.496 18.3226L137.886 18.4461C137.157 22.1852 134.701 23.5209 132.149 23.5209C128.672 23.5209 125.588 21.0782 125.701 16.9106Z" fill="#ACAEC3"/>
<path d="M147.044 16.2585V15.4828C143.057 16.8553 141.852 18.5171 141.852 19.9502C141.852 21.115 142.605 21.6987 143.407 21.6987C144.589 21.6987 146.826 20.0711 147.044 16.2585ZM153 18.6959C153 21.9248 152.174 23.5025 150.058 23.5025C148.626 23.5025 147.068 22.7505 147.068 20.4918V18.2989C146.218 21.7487 143.813 23.5209 141.747 23.5209C140.094 23.5209 138.757 22.5007 138.757 20.7995C138.757 18.2489 141.747 16.7686 147.044 15.141V14.389C147.044 12.2276 146.097 10.6499 144.413 10.6499C142.784 10.6499 142.005 12.033 142.005 13.466V13.4897C142.005 15.2409 139.47 15.5932 139.125 13.8736C139.101 13.7471 139.089 13.6185 139.089 13.4897C139.089 11.9594 140.839 10.2371 144.581 10.2371C147.597 10.2371 149.905 11.4756 149.905 14.5599V20.0106C149.905 21.37 150.1 22.293 151 22.293C152.092 22.293 152.505 20.7863 152.505 18.6986L153 18.6959Z" fill="#ACAEC3"/>
<path d="M82.0846 16.2585C81.8662 20.0711 79.6292 21.6987 78.437 21.6987C77.6475 21.6987 76.8817 21.115 76.8817 19.9502C76.8817 18.5171 78.0975 16.8422 82.0846 15.4802V16.2585ZM86.2718 23.2764H94.096V22.7926C90.8142 22.669 90.3773 22.4271 90.3773 20.0001V19.2954C90.3773 12.9849 92.3459 11.9121 93.417 11.9121C94.2907 11.9121 94.6066 12.3065 94.6066 13.1558V13.1742C94.6066 14.1313 95.9461 14.3206 96.6225 13.6422C96.9465 13.261 97.1205 12.775 97.112 12.2749C97.112 11.0128 95.9014 10.2371 94.5881 10.2371C92.8854 10.2371 91.1853 11.5518 90.3773 14.8254V10.479H85.2006V10.9655C87.1455 11.1101 87.485 11.3283 87.485 13.3924V20.0106C87.3297 21.3858 86.8929 22.2877 86.0455 22.2877C85.148 22.2877 84.9533 21.3648 84.9533 20.0054V14.5599C84.9533 11.4756 82.6426 10.2371 79.6292 10.2371C75.8869 10.2371 74.1367 11.9594 74.1367 13.4897C74.1351 13.7339 74.1816 13.976 74.2736 14.2023C74.871 15.6695 77.0843 15.1252 77.0527 13.5423V13.466C77.0527 12.033 77.8423 10.6499 79.4582 10.6499C81.1372 10.6499 82.0899 12.2276 82.0899 14.389V15.141C76.7843 16.7686 73.7946 18.2489 73.7946 20.7995C73.7946 22.5007 75.1315 23.5209 76.7843 23.5209C78.8502 23.5209 81.2583 21.7487 82.1083 18.2989V20.4839C82.1083 20.4839 81.932 23.4736 86.2718 23.2764Z" fill="#ACAEC3"/>
<path d="M27.1782 27.7175C24.4283 30.4723 20.7278 32.0716 16.8354 32.1874C16.9649 28.2999 18.5692 24.6071 21.3231 21.8576C24.077 19.1082 27.7742 17.5079 31.6653 17.3812C31.5465 21.2729 29.9409 24.9715 27.1782 27.7175V27.7175ZM5.48722 27.7175C2.722 24.9732 1.11593 21.2736 1.00007 17.3812C4.89254 17.4968 8.59319 19.0962 11.3429 21.8512C14.1012 24.599 15.7021 28.2975 15.8169 32.1874C11.9288 32.0693 8.23318 30.4701 5.48722 27.7175V27.7175ZM0.973751 1.78886H10.7428C8.60987 2.56539 6.66351 3.78 5.02929 5.35434C4.97139 5.40693 4.91876 5.45688 4.86612 5.5121C4.65295 5.71982 4.44767 5.93281 4.24766 6.15105C2.81378 7.7214 1.70155 9.55708 0.973751 11.5545V1.78886ZM31.6706 1.78886V11.5545C30.9453 9.55803 29.8338 7.72377 28.3993 6.15631C28.1993 5.93807 27.9914 5.71982 27.7782 5.5121C27.7256 5.45688 27.673 5.40693 27.6177 5.35697C25.9822 3.78229 24.0351 2.56689 21.9015 1.78886H31.6706ZM16.8275 21.0098C16.8316 17.7877 17.8505 14.6486 19.7399 12.0374C21.6294 9.42623 24.2934 7.47536 27.3545 6.46132C29.9622 9.13855 31.4921 12.6813 31.6522 16.4136C28.3936 16.5201 25.2414 17.5978 22.6006 19.5081C19.9599 21.4184 17.9512 24.074 16.8327 27.1337L16.8275 21.0098ZM11.3429 10.1819C12.7703 11.6016 13.9023 13.2895 14.6738 15.1484C15.4453 17.0072 15.8409 19.0002 15.8379 21.0125V21.0125V27.1732C15.0245 24.9172 13.7203 22.8697 12.0192 21.1781C9.09156 18.2384 5.1465 16.533 0.997437 16.4136C1.15807 12.6802 2.68886 9.13646 5.29773 6.45869C7.57828 7.2065 9.64964 8.48226 11.3429 10.1819V10.1819ZM15.8511 15.4881C15.0364 13.2328 13.7323 11.1855 12.0324 9.49303C10.3517 7.80855 8.3213 6.51332 6.08463 5.69879C8.77423 3.28291 12.2358 1.90084 15.8511 1.79938V15.4881ZM16.8275 1.81515C20.4335 1.92232 23.8843 3.30513 26.565 5.7172C24.331 6.53829 22.3028 7.83553 20.6212 9.51878C18.9396 11.202 17.6451 13.2309 16.8275 15.4644V1.81515ZM32.647 16.4136V0.815979H0V16.879V17.3812H0.0289494C0.154515 21.5336 1.86195 25.4814 4.80254 28.4183C7.74313 31.3553 11.695 33.0599 15.8511 33.184V33.184H16.8117C20.9694 33.0649 24.9242 31.3619 27.8658 28.4239C30.8074 25.4859 32.5133 21.5352 32.6338 17.3812V16.9842C32.6338 16.9527 32.6338 16.9211 32.6338 16.8896L32.647 16.4136Z" fill="#ACAEC3"/>
</svg>
