<svg width="85" height="44" viewBox="0 0 85 44" fill="none" xmlns="http://www.w3.org/2000/svg">
<path d="M28.2606 32.2034C24.8243 35.6688 18.9542 33.3658 18.9179 27.612C18.9179 23.9142 21.6785 21.2552 24.679 21.3569C27.6794 21.4586 28.1153 24.0595 27.5849 25.0548C27.0764 24.3283 25.9794 24.0958 25.1076 24.1031C20.8576 24.1031 20.814 31.1282 25.1512 31.0992C27.5849 31.0992 28.2533 28.6509 28.2388 26.515V22.8826V21.633H31.2174L31.2392 33.4966H28.2533L28.2606 32.2034Z" fill="#ACAEC3"/>
<path d="M36.855 24.0522C36.3101 24.2411 36.1285 24.7787 36.4554 25.1565C37.2836 26.0936 41.4173 26.6095 41.4391 29.9876C41.4391 33.9325 35.6926 35.0731 33.0772 31.6658L34.8716 29.6825C37.2255 32.3996 40.4511 30.2928 37.3417 28.7744C35.3657 27.8009 33.455 26.8274 33.4405 24.6915C33.4259 22.5556 35.4093 21.2189 37.5016 21.2915C41.0323 21.4514 41.134 24.459 39.3614 25.2073C39.1401 24.7491 38.7654 24.3827 38.3023 24.1717C37.8392 23.9607 37.3169 23.9185 36.8259 24.0522" fill="#ACAEC3"/>
<path d="M46.6045 23.9868C46.0596 24.1757 45.878 24.7133 46.1976 25.0911C47.0331 26.0283 51.1669 26.5441 51.1887 29.9223C51.1887 33.8671 45.4421 35.0077 42.8267 31.6078L44.6502 29.6244C47.0041 32.3342 50.2297 30.2274 47.1203 28.709C45.137 27.7355 43.2336 26.762 43.219 24.6262C43.2045 22.4903 45.1878 21.1535 47.2801 21.2334C50.8109 21.3933 50.9126 24.3937 49.1399 25.142C48.9187 24.6837 48.544 24.3173 48.0809 24.1064C47.6178 23.8954 47.0955 23.8531 46.6045 23.9868" fill="#ACAEC3"/>
<path d="M61.8899 31.9855C58.4536 35.4509 52.5836 33.1479 52.5472 27.3868C52.5472 23.6962 55.3079 21.0373 58.3156 21.139C61.3233 21.2407 61.7446 23.8415 61.2216 24.8368C60.7057 24.1103 59.6087 23.8779 58.737 23.8851C54.4942 23.8851 54.4434 30.9103 58.7805 30.8812C61.2143 30.8812 61.8827 28.433 61.8681 26.2971V22.6646V21.4078H64.8468L64.8831 33.2569H61.9045L61.8899 31.9855Z" fill="#ACAEC3"/>
<path d="M84.4112 16.9544C84.598 17.1246 84.747 17.3322 84.8484 17.5638C84.9498 17.7953 85.0013 18.0456 84.9996 18.2984C85.0046 18.5531 84.9591 18.8062 84.8655 19.0432C84.772 19.2801 84.6324 19.4961 84.4548 19.6787C83.6338 20.5142 81.9847 20.2236 81.5996 21.2625C81.3163 20.2962 80.7279 17.9642 81.7304 16.9471C81.9051 16.766 82.1153 16.6229 82.3478 16.5266C82.5803 16.4304 82.8301 16.3831 83.0817 16.3877C83.3313 16.3787 83.5799 16.4248 83.8096 16.5227C84.0394 16.6207 84.2448 16.7681 84.4112 16.9544ZM84.5783 21.2625L84.6582 33.1479H81.7014L81.636 23.6672C81.7377 21.8146 82.9509 21.277 84.5419 21.2407" fill="#ACAEC3"/>
<path d="M69.4599 15.0364C69.4599 15.0364 68.3121 11.6946 69.2711 8.75953C70.23 5.82451 76.536 2.3664 76.536 2.3664C76.536 2.3664 73.1578 6.29673 71.7048 7.77151C70.8003 8.90553 69.9704 10.0971 69.2202 11.3386C69.2311 11.8851 69.2699 12.4307 69.3364 12.9732C69.4484 13.6891 69.6037 14.3975 69.8014 15.0945L69.4599 15.0364Z" fill="#ACAEC3"/>
<path d="M69.351 14.4988C68.9588 13.5703 68.5175 12.6633 68.0288 11.7818C67.6512 11.1598 67.2079 10.5801 66.7066 10.0527C65.4866 8.74774 63.8555 7.90138 62.0861 7.65527C61.3746 7.57259 60.6539 7.6752 59.9938 7.95314C58.4846 8.3507 56.9389 8.59411 55.3806 8.67963C54.4071 8.67963 48.9584 7.95314 48.9584 7.95314C51.6237 7.09438 54.4213 6.72038 57.2186 6.84887C59.1318 6.86649 61.0389 7.06596 62.9143 7.44459C63.866 7.67707 65.428 7.94587 67.6946 10.5903C68.5205 11.6639 69.1523 12.8735 69.5617 14.1646L69.351 14.4988Z" fill="#ACAEC3"/>
<path d="M61.948 8.32366C59.7467 8.89152 57.622 9.72333 55.6203 10.801C53.1865 12.254 50.2805 15.7194 50.2805 15.7194C52.7856 14.8348 55.1739 13.6492 57.3929 12.1886C59.02 11.0252 60.5528 9.73534 61.9771 8.33093" fill="#ACAEC3"/>
<path d="M62.4275 6.85614C62.4275 6.85614 58.5117 5.40315 56.5429 3.47795L53.637 0.571976C53.637 0.571976 57.5528 2.02496 59.5143 3.47795C60.7234 4.39366 61.728 5.55169 62.4639 6.87793" fill="#ACAEC3"/>
<path d="M69.8087 15.3706C67.0691 14.6419 64.2357 14.3284 61.4031 14.4407C59.466 14.4976 57.5379 14.7286 55.6421 15.1309C57.8942 15.5861 60.1815 15.8461 62.4784 15.9082C65.3843 15.9082 69.8014 15.3706 69.8014 15.3706" fill="#ACAEC3"/>
<path d="M42.4126 42.5124C42.584 42.5804 42.7616 42.6315 42.943 42.6649C43.1347 42.6999 43.3293 42.7169 43.5242 42.7158C43.6562 42.716 43.7878 42.7014 43.9165 42.6722C44.0293 42.6423 44.137 42.5958 44.2361 42.5342C44.3262 42.4788 44.403 42.4044 44.4613 42.3162C44.5163 42.2295 44.5441 42.1283 44.5413 42.0256C44.5453 41.9224 44.5228 41.8198 44.4759 41.7278C44.4272 41.6523 44.3658 41.5859 44.2942 41.5316C44.2133 41.4765 44.1253 41.4326 44.0327 41.4008C43.9307 41.3566 43.8264 41.3177 43.7203 41.2846L43.4079 41.1756C43.0982 41.0777 42.8132 40.9142 42.5725 40.6961C42.4816 40.5993 42.4116 40.4849 42.3666 40.3599C42.3216 40.235 42.3027 40.1022 42.3109 39.9697C42.3012 39.7869 42.3342 39.6045 42.4074 39.4367C42.4805 39.269 42.5918 39.1206 42.7323 39.0034C43.1007 38.7377 43.5505 38.6092 44.0036 38.6402C44.2327 38.634 44.4618 38.6535 44.6866 38.6983C44.8861 38.7352 45.0827 38.7861 45.275 38.8509C45.2609 38.9708 45.2391 39.0897 45.2096 39.2068C45.1776 39.3204 45.1387 39.432 45.0934 39.541C44.9388 39.4858 44.7811 39.4397 44.6212 39.403C44.4286 39.357 44.2306 39.3374 44.0327 39.3449C43.8327 39.3396 43.6341 39.3794 43.4515 39.4611C43.3722 39.4963 43.3054 39.5547 43.26 39.6286C43.2146 39.7026 43.1927 39.7886 43.1972 39.8752C43.1937 39.9645 43.2165 40.0529 43.2626 40.1295C43.3051 40.2033 43.3649 40.2657 43.437 40.3111C43.5136 40.3647 43.5966 40.4086 43.684 40.4419L43.9819 40.5508L44.3742 40.6816C44.5144 40.7253 44.6505 40.7812 44.781 40.8487C44.9062 40.9073 45.0196 40.9886 45.1152 41.0884C45.21 41.1934 45.2861 41.3138 45.3404 41.4444C45.4024 41.6041 45.432 41.7745 45.4276 41.9457C45.4308 42.1541 45.3861 42.3604 45.2968 42.5487C45.2112 42.7325 45.0814 42.8922 44.919 43.0137C44.7443 43.1522 44.5445 43.2558 44.3306 43.3188C44.0895 43.388 43.8403 43.4246 43.5895 43.4278C43.3462 43.4279 43.1033 43.4084 42.8631 43.3696C42.6603 43.3369 42.4609 43.2859 42.2673 43.2171C42.274 43.0955 42.2985 42.9756 42.34 42.8611C42.34 42.7376 42.4199 42.6141 42.4635 42.4978" fill="#ACAEC3"/>
<path d="M46.4955 38.7346H46.7207H47.1566H47.3818V41.2483C47.3739 41.4935 47.4033 41.7384 47.469 41.9748C47.5111 42.14 47.5934 42.2923 47.7087 42.4179C47.8218 42.5226 47.9591 42.5975 48.1083 42.6359C48.2817 42.6791 48.4601 42.6987 48.6387 42.694C48.898 42.688 49.155 42.6439 49.4015 42.5632V38.7201H49.6194H49.8374H50.0553H50.2733V43.1517C50.0348 43.2242 49.7922 43.2825 49.5468 43.3261C49.2601 43.3879 48.9682 43.422 48.675 43.4278C48.3996 43.4304 48.1247 43.4061 47.8541 43.3551C47.5933 43.3162 47.348 43.2071 47.1445 43.0394C46.941 42.8718 46.787 42.6519 46.6989 42.4034C46.5533 42.0362 46.4841 41.6432 46.4955 41.2483V38.7346Z" fill="#ACAEC3"/>
<path d="M51.581 42.447C51.7524 42.515 51.93 42.5661 52.1113 42.5996C52.3023 42.6405 52.4972 42.66 52.6925 42.6577C52.825 42.6587 52.957 42.6416 53.0848 42.6068C53.1983 42.5825 53.3065 42.5382 53.4045 42.4761C53.4934 42.4163 53.5699 42.3398 53.6297 42.2509C53.6987 42.1732 53.7441 42.0774 53.7605 41.9748C53.7636 41.8739 53.7411 41.774 53.6951 41.6842C53.6482 41.6074 53.5864 41.5407 53.5134 41.488C53.4312 41.4333 53.3436 41.387 53.2519 41.35L52.9032 41.2483L52.5835 41.1393C52.278 41.037 51.9963 40.8739 51.7553 40.6598C51.5734 40.4626 51.4768 40.2015 51.4865 39.9333C51.4794 39.7502 51.5143 39.5679 51.5886 39.4004C51.6629 39.2329 51.7746 39.0847 51.9152 38.9671C52.2842 38.7021 52.7329 38.5714 53.1865 38.5966C53.4157 38.5964 53.6444 38.6183 53.8694 38.662C54.0689 38.6989 54.2656 38.7498 54.4579 38.8146C54.4431 38.9344 54.4213 39.0533 54.3925 39.1705C54.3614 39.2854 54.32 39.3972 54.269 39.5047C54.1173 39.4484 53.9619 39.4023 53.804 39.3667C53.6111 39.3219 53.4136 39.2999 53.2156 39.3013C53.0154 39.302 52.8175 39.344 52.6344 39.4248C52.5551 39.46 52.4883 39.5184 52.4429 39.5923C52.3975 39.6663 52.3756 39.7523 52.3801 39.8389C52.3774 39.9281 52.4001 40.0163 52.4455 40.0932C52.49 40.1654 52.5495 40.2274 52.6199 40.2748C52.6939 40.3284 52.7745 40.3723 52.8596 40.4056L53.1647 40.5073L53.557 40.638C53.6961 40.6849 53.832 40.7407 53.9639 40.8051C54.0895 40.8663 54.2027 40.95 54.2981 41.0521C54.3928 41.1571 54.469 41.2775 54.5233 41.4081C54.5816 41.5688 54.6111 41.7385 54.6104 41.9094C54.6129 42.1177 54.5682 42.3238 54.4797 42.5124C54.3917 42.6947 54.2623 42.8539 54.1019 42.9773C53.9272 43.1159 53.7274 43.2195 53.5134 43.2825C53.2638 43.3577 53.0041 43.3945 52.7434 43.3914C52.5001 43.3974 52.2569 43.3804 52.0169 43.3406C51.8119 43.3071 51.6101 43.256 51.4139 43.188C51.4273 43.0644 51.4541 42.9426 51.4938 42.8248C51.5301 42.7085 51.5737 42.585 51.6173 42.4615" fill="#ACAEC3"/>
<path d="M55.6929 36.715H55.9108H56.1288H56.3467H56.572V39.3739C56.6295 39.2789 56.6951 39.1889 56.7681 39.1051C56.8545 39.0048 56.952 38.9146 57.0587 38.8363C57.3267 38.6549 57.6432 38.5587 57.9668 38.5603C58.1813 38.5435 58.3968 38.5745 58.5978 38.6512C58.7989 38.7278 58.9804 38.8481 59.1292 39.0034C59.4276 39.3785 59.5844 39.8466 59.5724 40.3257V43.2316C59.4998 43.2359 59.427 43.2359 59.3544 43.2316H59.1365H58.9185H58.7006V40.5727C58.7175 40.2483 58.6419 39.9258 58.4826 39.6427C58.4093 39.5442 58.3122 39.4659 58.2004 39.4151C58.0886 39.3643 57.9658 39.3426 57.8433 39.3522C57.6843 39.3522 57.5266 39.3818 57.3784 39.4393C57.2293 39.4987 57.0953 39.5906 56.9861 39.7081C56.8676 39.8488 56.7787 40.0119 56.7245 40.1876C56.6541 40.4231 56.6222 40.6684 56.6301 40.9141V43.2607H56.4049H56.1869H55.9399H55.722L55.6929 36.715Z" fill="#ACAEC3"/>
<path d="M61.1416 39.3376H60.5604V39.1778V38.8073V38.6475H62.0134V43.2244H61.7882H61.5702H61.3886H61.1634L61.1416 39.3376ZM60.9309 37.6158C60.9309 37.5504 60.9309 37.4705 60.9309 37.3906C60.9309 37.3107 60.9309 37.2308 60.9309 37.1654C60.9309 37.1 60.9309 37.0274 60.9309 36.9402C60.9231 36.8653 60.9231 36.7898 60.9309 36.715C61.0132 36.7107 61.0957 36.7107 61.1779 36.715H61.4104H61.6429H61.8826C61.8905 36.7874 61.8905 36.8605 61.8826 36.9329C61.8826 37.0201 61.8826 37.0928 61.8826 37.1581V37.3834V37.6158C61.8028 37.6201 61.7228 37.6201 61.6429 37.6158H61.4177H61.1779H60.9237" fill="#ACAEC3"/>
<path d="M65.5006 42.3598C65.6716 42.4288 65.8493 42.48 66.0309 42.5124C66.22 42.5493 66.4121 42.5688 66.6048 42.5705C66.7368 42.5652 66.8681 42.5482 66.9971 42.5196C67.1139 42.4947 67.2248 42.4479 67.3241 42.3816C67.4138 42.3283 67.4887 42.2534 67.542 42.1637C67.5945 42.0758 67.6222 41.9754 67.6222 41.8731C67.6222 41.7707 67.5945 41.6703 67.542 41.5825C67.5 41.5043 67.4403 41.4372 67.3676 41.3863C67.2869 41.329 67.199 41.2826 67.1061 41.2483L66.8373 41.1393L66.5249 41.0231C66.2003 40.9236 65.9024 40.7523 65.6531 40.5218C65.5624 40.4246 65.4919 40.3103 65.4457 40.1856C65.3996 40.0608 65.3787 39.9282 65.3843 39.7953C65.3766 39.6121 65.4113 39.4296 65.4856 39.262C65.56 39.0945 65.672 38.9463 65.8129 38.8291C66.1786 38.5633 66.6261 38.4347 67.077 38.4658C67.3208 38.4632 67.5642 38.4851 67.8035 38.5312C68.0005 38.5689 68.1947 38.6199 68.3847 38.6838C68.3693 38.8155 68.3376 38.9449 68.2903 39.0688C68.2603 39.1807 68.2214 39.29 68.174 39.3957C68.0433 39.3521 67.8835 39.3085 67.7018 39.265C67.5114 39.2201 67.3163 39.1981 67.1206 39.1996C66.9187 39.1988 66.7187 39.2383 66.5322 39.3158C66.4536 39.3513 66.3878 39.41 66.3436 39.484C66.2994 39.5581 66.279 39.6439 66.2852 39.7299C66.2838 39.8173 66.3044 39.9037 66.345 39.9811C66.3856 40.0585 66.445 40.1245 66.5176 40.1731C66.5929 40.2271 66.6763 40.2688 66.7647 40.2966L67.0625 40.4056L67.4548 40.5363C67.5974 40.58 67.7359 40.6359 67.8689 40.7034C67.9893 40.7665 68.0995 40.8473 68.1958 40.9432C68.2915 41.0475 68.3677 41.168 68.4211 41.2991C68.4825 41.4615 68.5121 41.6341 68.5082 41.8077C68.5177 42.0166 68.4726 42.2244 68.3775 42.4107C68.29 42.5912 68.1634 42.7501 68.007 42.8756C67.8286 43.0128 67.6267 43.1162 67.4112 43.1808C67.1639 43.2555 66.9067 43.2923 66.6484 43.2897C66.4053 43.2919 66.1624 43.2749 65.9219 43.2389C65.7193 43.2053 65.52 43.1542 65.3262 43.0863C65.334 42.9565 65.3535 42.8276 65.3843 42.7013C65.4203 42.5776 65.4639 42.4563 65.5151 42.338" fill="#ACAEC3"/>
<path d="M69.7869 39.2868H69.0604V39.1633L70.586 37.4415H70.6587V38.5748H71.8211C71.8334 38.6859 71.8334 38.7979 71.8211 38.909C71.8248 38.9719 71.8248 39.035 71.8211 39.0979V39.2795H70.6659V41.3645C70.6555 41.563 70.6555 41.7618 70.6659 41.9602C70.6778 42.0805 70.7149 42.1968 70.7749 42.3017C70.822 42.38 70.8975 42.4373 70.9856 42.4615C71.0916 42.4932 71.2019 42.508 71.3125 42.5051C71.4068 42.513 71.5016 42.513 71.5959 42.5051L71.8356 42.4543C71.8768 42.5742 71.9036 42.6985 71.9155 42.8248C71.9155 42.9483 71.9155 43.0572 71.9155 43.1517L71.5377 43.2243C71.3998 43.232 71.2616 43.232 71.1236 43.2243C70.7616 43.2447 70.404 43.1366 70.1138 42.9192C69.9824 42.7837 69.8819 42.6213 69.8192 42.4432C69.7565 42.2651 69.7331 42.0756 69.7506 41.8876L69.7869 39.2868Z" fill="#ACAEC3"/>
<path d="M74.698 43.2389C74.3769 43.2463 74.0577 43.1869 73.7608 43.0645C73.5019 42.9485 73.2713 42.7774 73.0852 42.5632C72.9048 42.3502 72.769 42.1031 72.6856 41.8367C72.5904 41.5311 72.5439 41.2124 72.5476 40.8923C72.5423 40.5708 72.5839 40.2502 72.6711 39.9406C72.7533 39.6752 72.8866 39.4285 73.0634 39.2141C73.2425 38.9921 73.4715 38.8154 73.7317 38.6983C74.0235 38.5653 74.341 38.4983 74.6616 38.5022C74.9859 38.4935 75.3082 38.5555 75.6061 38.6838C75.8647 38.8001 76.0934 38.9741 76.2745 39.1923C76.4561 39.4045 76.5921 39.6518 76.674 39.9188C76.7697 40.2243 76.8163 40.5431 76.8121 40.8632C76.8168 41.1824 76.7752 41.5005 76.6886 41.8077C76.6144 42.0873 76.4805 42.3475 76.2963 42.5705C76.1166 42.7903 75.8876 42.9645 75.6279 43.079C75.3356 43.2095 75.0181 43.274 74.698 43.2679V43.2389ZM74.698 42.5414C74.8754 42.5516 75.0524 42.5154 75.2117 42.4364C75.3709 42.3575 75.5068 42.2384 75.6061 42.091C75.7974 41.7061 75.897 41.2822 75.897 40.8524C75.897 40.4225 75.7974 39.9986 75.6061 39.6137C75.498 39.4762 75.3601 39.365 75.2028 39.2886C75.0455 39.2122 74.8729 39.1724 74.698 39.1724C74.5231 39.1724 74.3505 39.2122 74.1932 39.2886C74.0358 39.365 73.8979 39.4762 73.7899 39.6137C73.5738 39.9903 73.4751 40.4229 73.5065 40.856C73.4831 41.2879 73.5867 41.7172 73.8044 42.091C73.9035 42.2381 74.0396 42.3566 74.199 42.4344C74.3585 42.5121 74.5355 42.5466 74.7125 42.5342" fill="#ACAEC3"/>
<path d="M77.9599 38.5312H78.1415H78.5265H78.7082C78.7082 38.6256 78.7082 38.7419 78.7663 38.8872C78.8244 39.0325 78.7663 39.156 78.7663 39.2577C78.8926 39.051 79.0579 38.8709 79.253 38.7273C79.4861 38.5687 79.7631 38.4874 80.0449 38.4949H80.1902H80.321V38.662V38.8509C80.328 38.9258 80.328 39.0012 80.321 39.0761C80.321 39.1487 80.321 39.2214 80.321 39.294H80.1757H80.0522C79.8966 39.2921 79.7418 39.3167 79.5945 39.3667C79.4457 39.4125 79.3108 39.4949 79.2022 39.6064C79.0784 39.7389 78.9864 39.8979 78.9334 40.0714C78.863 40.307 78.8287 40.5519 78.8317 40.7979V43.0718H78.6137H78.3958H78.1778H77.9526L77.9599 38.5312Z" fill="#ACAEC3"/>
<path d="M81.8176 41.0158C81.8077 41.2161 81.838 41.4163 81.9066 41.6047C81.9752 41.7931 82.0808 41.9658 82.2172 42.1128C82.5239 42.3601 82.9142 42.4798 83.3069 42.447C83.7194 42.4473 84.1283 42.371 84.5129 42.2218C84.5669 42.3222 84.6061 42.4298 84.6291 42.5414C84.6626 42.6673 84.6821 42.7964 84.6872 42.9265C84.4789 43.0119 84.2622 43.0752 84.0407 43.1154C83.7841 43.161 83.5239 43.1828 83.2633 43.1808C82.8974 43.1956 82.5322 43.1389 82.1881 43.0137C81.9125 42.9079 81.6642 42.7416 81.4616 42.5269C81.2701 42.317 81.1241 42.0696 81.033 41.8004C80.9403 41.4942 80.8938 41.1759 80.8949 40.856C80.8897 40.5344 80.9313 40.2138 81.0184 39.9043C81.0965 39.624 81.2299 39.3621 81.4108 39.1342C81.5917 38.9121 81.8201 38.7334 82.0791 38.6111C82.3798 38.4739 82.7077 38.4068 83.0381 38.415C83.3243 38.4054 83.6092 38.4574 83.8736 38.5675C84.1049 38.6707 84.3111 38.8229 84.4779 39.0136C84.6448 39.2042 84.7682 39.4288 84.8398 39.6718C84.929 39.9437 84.9731 40.2284 84.9706 40.5145C84.9706 40.6017 84.9706 40.6889 84.9706 40.7761C84.9706 40.8633 84.9706 40.9504 84.9706 41.0158H81.8176ZM84.0842 40.3402C84.0826 40.1777 84.0581 40.0163 84.0116 39.8607C83.9731 39.7181 83.9064 39.5847 83.8155 39.4684C83.7265 39.354 83.6121 39.2619 83.4813 39.1996C83.3324 39.1262 83.1676 39.0913 83.0018 39.0979C82.8476 39.0885 82.6932 39.1136 82.5499 39.1714C82.4067 39.2292 82.2781 39.3183 82.1736 39.4321C81.9621 39.6947 81.8399 40.0179 81.8249 40.3547L84.0842 40.3402Z" fill="#ACAEC3"/>
<path d="M4.991 27.5902L2.90597 21.8146H0L3.02221 30.0748L2.62264 31.0774C2.57965 31.1863 2.58151 31.3078 2.62779 31.4153C2.67407 31.5228 2.76101 31.6077 2.86965 31.6513C2.92346 31.6736 2.98119 31.6849 3.03944 31.6845C3.09768 31.6841 3.15526 31.672 3.20876 31.649C3.26226 31.626 3.31061 31.5924 3.35094 31.5504C3.39127 31.5084 3.42277 31.4587 3.44357 31.4043V31.3317V31.3752L4.991 27.5902Z" fill="#ACAEC3"/>
<path d="M14.0286 23.3475L12.2487 28.433L9.68416 21.771C9.14207 21.6981 8.59239 21.8317 8.14424 22.1453C7.69608 22.4589 7.38221 22.9295 7.26494 23.4638L3.90128 32.4868L4.35897 33.6928H6.24058L8.81237 26.9073L11.3987 33.6564H13.3021L17.5158 21.742C17.1828 21.5999 16.8236 21.5298 16.4616 21.5361C16.0997 21.5425 15.7432 21.6251 15.4154 21.7788C15.0876 21.9324 14.7959 22.1534 14.5594 22.4275C14.323 22.7016 14.147 23.0225 14.0431 23.3693" fill="#ACAEC3"/>
<path d="M73.0561 24.0231C73.7721 23.9974 74.4738 24.2274 75.0356 24.6721C75.5974 25.1167 75.9825 25.7469 76.1219 26.4496H79.0278C78.8764 25.059 78.2191 23.7725 77.181 22.8348C76.1429 21.8972 74.7964 21.3738 73.3975 21.3642C70.3681 21.5022 70.0847 24.0449 70.6223 24.9966C70.921 24.6628 71.2928 24.4026 71.7087 24.2363C72.1246 24.0699 72.5733 24.0019 73.0198 24.0377" fill="#ACAEC3"/>
<path d="M69.5907 26.4932H70.0266C70.0266 26.3915 70.0266 26.2898 70.0266 26.1954V25.992L69.9612 15.9954C68.174 16.0535 67.0552 17.136 67.0552 18.3783L67.1061 25.6432H66.8736C66.8157 25.6432 66.7584 25.6547 66.7051 25.6771C66.6517 25.6995 66.6033 25.7322 66.5628 25.7735C66.5222 25.8147 66.4902 25.8636 66.4688 25.9174C66.4473 25.9711 66.4367 26.0286 66.4377 26.0864C66.4367 26.1445 66.4475 26.2023 66.4695 26.2561C66.4915 26.3099 66.5242 26.3587 66.5657 26.3995C66.6071 26.4403 66.6565 26.4722 66.7106 26.4933C66.7648 26.5144 66.8227 26.5243 66.8808 26.5223H67.1133L69.5907 26.4932Z" fill="#ACAEC3"/>
<path d="M79.3403 27.1616H79.1296H76.6522H76.2236C76.2309 27.2802 76.2309 27.399 76.2236 27.5176V27.6048C76.2189 28.0044 76.1348 28.3992 75.9762 28.7661C75.8176 29.133 75.5876 29.4646 75.2996 29.7418C75.0116 30.019 74.6714 30.2361 74.2987 30.3806C73.926 30.5251 73.5283 30.594 73.1288 30.5834C71.051 30.5834 70.2228 29.0505 70.0702 27.2052H67.1642C67.1852 27.9004 67.2434 28.594 67.3386 29.283C67.4583 29.9685 67.7264 30.6196 68.1243 31.1906C68.5221 31.7616 69.0399 32.2387 69.6416 32.5885C73.1505 34.768 78.7155 33.0753 79.1368 27.9971H79.3766C79.4941 27.9971 79.6068 27.9504 79.6899 27.8673C79.7731 27.7842 79.8197 27.6714 79.8197 27.5539C79.8197 27.4364 79.7731 27.3237 79.6899 27.2405C79.6068 27.1574 79.4941 27.1107 79.3766 27.1107" fill="#ACAEC3"/>
</svg>
